<svg width="800" height="600" xmlns="http://www.w3.org/2000/svg">
  <!-- Background -->
  <rect width="100%" height="100%" fill="white" />

  <!-- Title -->
  <text x="400" y="30" text-anchor="middle" font-size="20" font-weight="bold" fill="#333">Humanoid Robot URDF Structure</text>

  <!-- Robot Structure -->
  <g transform="translate(400, 300)">
    <!-- Torso -->
    <rect x="-40" y="-100" width="80" height="100" fill="#E0E0E0" stroke="#333" stroke-width="2" />
    <text x="0" y="-40" text-anchor="middle" font-size="12" fill="#333">torso</text>
    
    <!-- Head -->
    <circle cx="0" cy="-130" r="30" fill="#E0E0E0" stroke="#333" stroke-width="2" />
    <text x="0" y="-135" text-anchor="middle" font-size="12" fill="#333">head</text>
    
    <!-- Left Arm -->
    <line x1="40" y1="-80" x2="100" y2="-30" stroke="#333" stroke-width="8" />
    <circle cx="70" cy="-55" r="7" fill="#2196F3" />
    <text x="70" y="-65" text-anchor="middle" font-size="10" fill="#333">l_shoulder</text>
    
    <line x1="100" y1="-30" x2="140" y2="0" stroke="#333" stroke-width="6" />
    <circle cx="120" cy="-15" r="6" fill="#2196F3" />
    <text x="120" y="-25" text-anchor="middle" font-size="10" fill="#333">l_elbow</text>
    
    <!-- Right Arm -->
    <line x1="-40" y1="-80" x2="-100" y2="-30" stroke="#333" stroke-width="8" />
    <circle cx="-70" cy="-55" r="7" fill="#2196F3" />
    <text x="-70" y="-65" text-anchor="middle" font-size="10" fill="#333">r_shoulder</text>
    
    <line x1="-100" y1="-30" x2="-140" y2="0" stroke="#333" stroke-width="6" />
    <circle cx="-120" cy="-15" r="6" fill="#2196F3" />
    <text x="-120" y="-25" text-anchor="middle" font-size="10" fill="#333">r_elbow</text>
    
    <!-- Left Leg -->
    <line x1="-20" y1="0" x2="-20" y2="100" stroke="#333" stroke-width="8" />
    <circle cx="-20" cy="40" r="7" fill="#2196F3" />
    <text x="-20" y="30" text-anchor="middle" font-size="10" fill="#333">l_hip</text>
    
    <line x1="-20" y1="100" x2="-20" y2="180" stroke="#333" stroke-width="6" />
    <circle cx="-20" cy="140" r="6" fill="#2196F3" />
    <text x="-20" y="130" text-anchor="middle" font-size="10" fill="#333">l_knee</text>
    
    <rect x="-35" y="180" width="30" height="10" fill="#E0E0E0" stroke="#333" stroke-width="2" />
    <text x="-20" y="195" text-anchor="middle" font-size="10" fill="#333">l_foot</text>
    
    <!-- Right Leg -->
    <line x1="20" y1="0" x2="20" y2="100" stroke="#333" stroke-width="8" />
    <circle cx="20" cy="40" r="7" fill="#2196F3" />
    <text x="20" y="30" text-anchor="middle" font-size="10" fill="#333">r_hip</text>
    
    <line x1="20" y1="100" x2="20" y2="180" stroke="#333" stroke-width="6" />
    <circle cx="20" cy="140" r="6" fill="#2196F3" />
    <text x="20" y="130" text-anchor="middle" font-size="10" fill="#333">r_knee</text>
    
    <rect x="5" y="180" width="30" height="10" fill="#E0E0E0" stroke="#333" stroke-width="2" />
    <text x="20" y="195" text-anchor="middle" font-size="10" fill="#333">r_foot</text>
    
    <!-- Joint indicators -->
    <g transform="translate(0, 0)">
      <circle cx="0" cy="0" r="5" fill="red" />
      <text x="0" y="-10" text-anchor="middle" font-size="10" fill="red">base_link</text>
    </g>
  </g>

  <!-- URDF File Structure -->
  <g transform="translate(50, 100)">
    <rect x="0" y="0" width="300" height="350" fill="#F5F5F5" stroke="#333" stroke-width="2" />
    <text x="150" y="25" text-anchor="middle" font-size="14" font-weight="bold" fill="#333">URDF File Structure</text>
    
    <!-- URDF Root -->
    <text x="20" y="50" font-family="monospace" font-size="12" fill="#333">&lt;robot name="humanoid"&gt;</text>
    
    <!-- Links -->
    <g>
      <text x="30" y="75" font-family="monospace" font-size="12" fill="#1976D2">&lt;link name="base_link"&gt;</text>
      <text x="40" y="95" font-family="monospace" font-size="12" fill="#333">  &lt;visual&gt;...&lt;/visual&gt;</text>
      <text x="40" y="115" font-family="monospace" font-size="12" fill="#333">  &lt;collision&gt;...&lt;/collision&gt;</text>
      <text x="40" y="135" font-family="monospace" font-size="12" fill="#333">  &lt;inertial&gt;...&lt;/inertial&gt;</text>
      <text x="30" y="155" font-family="monospace" font-size="12" fill="#1976D2">&lt;/link&gt;</text>
    </g>
    
    <g>
      <text x="30" y="180" font-family="monospace" font-size="12" fill="#1976D2">&lt;link name="torso"&gt;</text>
      <text x="40" y="200" font-family="monospace" font-size="12" fill="#333">  &lt;visual&gt;...&lt;/visual&gt;</text>
      <text x="40" y="220" font-family="monospace" font-size="12" fill="#333">  &lt;collision&gt;...&lt;/collision&gt;</text>
      <text x="40" y="240" font-family="monospace" font-size="12" fill="#333">  &lt;inertial&gt;...&lt;/inertial&gt;</text>
      <text x="30" y="260" font-family="monospace" font-size="12" fill="#1976D2">&lt;/link&gt;</text>
    </g>
    
    <!-- Joints -->
    <g>
      <text x="30" y="285" font-family="monospace" font-size="12" fill="#388E3C">&lt;joint name="base_to_torso" type="fixed"&gt;</text>
      <text x="40" y="305" font-family="monospace" font-size="12" fill="#333">  &lt;parent link="base_link"/&gt;</text>
      <text x="40" y="325" font-family="monospace" font-size="12" fill="#333">  &lt;child link="torso"/&gt;</text>
      <text x="30" y="345" font-family="monospace" font-size="12" fill="#388E3C">&lt;/joint&gt;</text>
    </g>
  </g>

  <!-- URDF Components Legend -->
  <g transform="translate(500, 100)">
    <rect x="0" y="0" width="250" height="150" fill="#FFF" stroke="#333" stroke-width="2" />
    <text x="125" y="25" text-anchor="middle" font-size="14" font-weight="bold" fill="#333">URDF Components</text>
    
    <g transform="translate(20, 45)">
      <rect x="0" y="0" width="20" height="10" fill="#E0E0E0" stroke="#333" />
      <text x="30" y="10" font-size="12" fill="#333">Link (Visual)</text>
    </g>
    
    <g transform="translate(20, 70)">
      <circle cx="10" cy="5" r="6" fill="#2196F3" />
      <text x="30" y="10" font-size="12" fill="#333">Joint</text>
    </g>
    
    <g transform="translate(20, 95)">
      <line x1="0" y1="5" x2="20" y2="5" stroke="#333" stroke-width="4" />
      <text x="30" y="10" font-size="12" fill="#333">Link (Collision)</text>
    </g>
    
    <g transform="translate(20, 120)">
      <circle cx="10" cy="5" r="5" fill="red" />
      <text x="30" y="10" font-size="12" fill="#333">Origin/Frame</text>
    </g>
  </g>

  <!-- Properties Legend -->
  <g transform="translate(500, 270)">
    <rect x="0" y="0" width="250" height="150" fill="#FFF" stroke="#333" stroke-width="2" />
    <text x="125" y="25" text-anchor="middle" font-size="14" font-weight="bold" fill="#333">URDF Properties</text>
    
    <g transform="translate(20, 45)">
      <text x="0" y="0" font-size="12" fill="#333" font-weight="bold">Visual Properties:</text>
      <text x="0" y="15" font-size="10" fill="#333">- Geometry (box, cylinder, sphere, mesh)</text>
      <text x="0" y="30" font-size="10" fill="#333">- Material (color, texture)</text>
    </g>
    
    <g transform="translate(20, 75)">
      <text x="0" y="0" font-size="12" fill="#333" font-weight="bold">Collision Properties:</text>
      <text x="0" y="15" font-size="10" fill="#333">- Collision geometry</text>
      <text x="0" y="30" font-size="10" fill="#333">- Used for physics simulation</text>
    </g>
    
    <g transform="translate(20, 115)">
      <text x="0" y="0" font-size="12" fill="#333" font-weight="bold">Inertial Properties:</text>
      <text x="0" y="15" font-size="10" fill="#333">- Mass, center of mass, inertia</text>
    </g>
  </g>

  <!-- Joint Types -->
  <g transform="translate(50, 470)">
    <rect x="0" y="0" width="700" height="110" fill="#FFF" stroke="#333" stroke-width="2" />
    <text x="350" y="25" text-anchor="middle" font-size="14" font-weight="bold" fill="#333">Joint Types in Humanoid Robots</text>
    
    <g transform="translate(30, 50)">
      <text x="0" y="0" font-size="12" fill="#333" font-weight="bold">revolute:</text>
      <text x="0" y="15" font-size="10" fill="#333">Rotational joint with limits (knees, elbows)</text>
    </g>
    
    <g transform="translate(180, 50)">
      <text x="0" y="0" font-size="12" fill="#333" font-weight="bold">continuous:</text>
      <text x="0" y="15" font-size="10" fill="#333">Continuous rotation (rotary joints)</text>
    </g>
    
    <g transform="translate(330, 50)">
      <text x="0" y="0" font-size="12" fill="#333" font-weight="bold">prismatic:</text>
      <text x="0" y="15" font-size="10" fill="#333">Linear sliding joint</text>
    </g>
    
    <g transform="translate(480, 50)">
      <text x="0" y="0" font-size="12" fill="#333" font-weight="bold">fixed:</text>
      <text x="0" y="15" font-size="10" fill="#333">Non-moving connection (torso to head)</text>
    </g>
    
    <g transform="translate(630, 50)">
      <text x="0" y="0" font-size="12" fill="#333" font-weight="bold">floating:</text>
      <text x="0" y="15" font-size="10" fill="#333">6 DOF unconstrained joint</text>
    </g>
  </g>
</svg>